<svg width="25" height="24" viewBox="0 0 25 24" fill="currentColor" xmlns="http://www.w3.org/2000/svg">
<path d="M18.875 2.25C17.84 2.25 17 3.09 17 4.125V19.875C17 20.91 17.84 21.75 18.875 21.75H19.625C20.66 21.75 21.5 20.91 21.5 19.875V4.125C21.5 3.089 20.66 2.25 19.625 2.25H18.875ZM10.25 8.625C10.25 7.589 11.09 6.75 12.125 6.75H12.875C13.911 6.75 14.75 7.59 14.75 8.625V19.875C14.75 20.91 13.91 21.75 12.875 21.75H12.125C11.6277 21.75 11.1508 21.5525 10.7992 21.2008C10.4475 20.8492 10.25 20.3723 10.25 19.875V8.625ZM3.5 13.125C3.5 12.089 4.34 11.25 5.375 11.25H6.125C7.161 11.25 8 12.09 8 13.125V19.875C8 20.91 7.16 21.75 6.125 21.75H5.375C4.87772 21.75 4.40081 21.5525 4.04917 21.2008C3.69754 20.8492 3.5 20.3723 3.5 19.875V13.125Z" fill="currentColor" fill-opacity="1"/>
</svg>
