<svg width="25" height="24" viewBox="0 0 25 24" fill="none" xmlns="http://www.w3.org/2000/svg">
<path d="M5 3.75C4.20435 3.75 3.44129 4.06607 2.87868 4.62868C2.31607 5.19129 2 5.95435 2 6.75V7.5H23V6.75C23 5.95435 22.6839 5.19129 22.1213 4.62868C21.5587 4.06607 20.7956 3.75 20 3.75H5Z" fill="black"/>
<path fill-rule="evenodd" clip-rule="evenodd" d="M23 9.75H2V17.25C2 18.0456 2.31607 18.8087 2.87868 19.3713C3.44129 19.9339 4.20435 20.25 5 20.25H20C20.7956 20.25 21.5587 19.9339 22.1213 19.3713C22.6839 18.8087 23 18.0456 23 17.25V9.75ZM5 13.5C5 13.3011 5.07902 13.1103 5.21967 12.9697C5.36032 12.829 5.55109 12.75 5.75 12.75H11.75C11.9489 12.75 12.1397 12.829 12.2803 12.9697C12.421 13.1103 12.5 13.3011 12.5 13.5C12.5 13.6989 12.421 13.8897 12.2803 14.0303C12.1397 14.171 11.9489 14.25 11.75 14.25H5.75C5.55109 14.25 5.36032 14.171 5.21967 14.0303C5.07902 13.8897 5 13.6989 5 13.5ZM5.75 15.75C5.55109 15.75 5.36032 15.829 5.21967 15.9697C5.07902 16.1103 5 16.3011 5 16.5C5 16.6989 5.07902 16.8897 5.21967 17.0303C5.36032 17.171 5.55109 17.25 5.75 17.25H8.75C8.94891 17.25 9.13968 17.171 9.28033 17.0303C9.42098 16.8897 9.5 16.6989 9.5 16.5C9.5 16.3011 9.42098 16.1103 9.28033 15.9697C9.13968 15.829 8.94891 15.75 8.75 15.75H5.75Z" fill="black"/>
</svg>
