<svg width="25" height="24" viewBox="0 0 25 24" fill="currentColor" xmlns="http://www.w3.org/2000/svg">
<path d="M11.9699 3.84099C12.1106 3.70054 12.3012 3.62165 12.4999 3.62165C12.6987 3.62165 12.8893 3.70054 13.0299 3.84099L21.7199 12.531C21.7892 12.6026 21.8719 12.6597 21.9635 12.699C22.055 12.7382 22.1534 12.7589 22.253 12.7597C22.3526 12.7605 22.4513 12.7415 22.5435 12.7037C22.6356 12.666 22.7194 12.6102 22.7897 12.5398C22.8601 12.4693 22.9158 12.3856 22.9534 12.2934C22.9911 12.2012 23.01 12.1024 23.0091 12.0028C23.0082 11.9032 22.9875 11.8048 22.9481 11.7134C22.9088 11.6219 22.8516 11.5391 22.7799 11.47L14.0909 2.77999C13.882 2.57106 13.634 2.40532 13.361 2.29225C13.088 2.17917 12.7954 2.12097 12.4999 2.12097C12.2045 2.12097 11.9119 2.17917 11.6389 2.29225C11.3659 2.40532 11.1179 2.57106 10.9089 2.77999L2.21894 11.47C2.14734 11.5392 2.09025 11.622 2.05098 11.7135C2.01172 11.805 1.99108 11.9035 1.99026 12.003C1.98944 12.1026 2.00846 12.2014 2.04622 12.2935C2.08397 12.3857 2.1397 12.4694 2.21015 12.5398C2.28061 12.6102 2.36437 12.6658 2.45656 12.7035C2.54875 12.7412 2.64752 12.7601 2.7471 12.7592C2.84669 12.7583 2.94509 12.7375 3.03658 12.6982C3.12806 12.6588 3.21079 12.6017 3.27994 12.53L11.9699 3.84099Z" fill="currentColor"/>
<path d="M12.5 5.43201L20.659 13.591C20.689 13.621 20.719 13.649 20.75 13.677V19.875C20.75 20.91 19.91 21.75 18.875 21.75H15.5C15.3011 21.75 15.1103 21.671 14.9697 21.5303C14.829 21.3897 14.75 21.1989 14.75 21V16.5C14.75 16.3011 14.671 16.1103 14.5303 15.9697C14.3897 15.829 14.1989 15.75 14 15.75H11C10.8011 15.75 10.6103 15.829 10.4697 15.9697C10.329 16.1103 10.25 16.3011 10.25 16.5V21C10.25 21.1989 10.171 21.3897 10.0303 21.5303C9.88968 21.671 9.69891 21.75 9.5 21.75H6.125C5.62772 21.75 5.15081 21.5525 4.79917 21.2008C4.44754 20.8492 4.25 20.3723 4.25 19.875V13.677C4.28111 13.6492 4.31146 13.6205 4.341 13.591L12.5 5.43201Z" fill="currentColor"/>
</svg>
