<svg width="25" height="24" viewBox="0 0 25 24" fill="currentColor" xmlns="http://www.w3.org/2000/svg">
<path fill-rule="evenodd" clip-rule="evenodd" d="M8 5.25C8 4.45435 8.31607 3.69129 8.87868 3.12868C9.44129 2.56607 10.2044 2.25 11 2.25H14C14.7956 2.25 15.5587 2.56607 16.1213 3.12868C16.6839 3.69129 17 4.45435 17 5.25V5.455C17.933 5.54 18.857 5.652 19.774 5.789C21.228 6.007 22.25 7.272 22.25 8.706V11.739C22.25 12.95 21.516 14.091 20.314 14.491C17.7938 15.3275 15.1554 15.7526 12.5 15.75C9.77 15.75 7.143 15.308 4.686 14.491C3.484 14.091 2.75 12.95 2.75 11.739V8.706C2.75 7.272 3.772 6.006 5.226 5.789C6.14729 5.65122 7.07234 5.53984 8 5.455V5.25ZM15.5 5.25V5.34C13.5018 5.21865 11.4982 5.21865 9.5 5.34V5.25C9.5 4.85218 9.65804 4.47064 9.93934 4.18934C10.2206 3.90804 10.6022 3.75 11 3.75H14C14.3978 3.75 14.7794 3.90804 15.0607 4.18934C15.342 4.47064 15.5 4.85218 15.5 5.25ZM12.5 13.5C12.6989 13.5 12.8897 13.421 13.0303 13.2803C13.171 13.1397 13.25 12.9489 13.25 12.75C13.25 12.5511 13.171 12.3603 13.0303 12.2197C12.8897 12.079 12.6989 12 12.5 12C12.3011 12 12.1103 12.079 11.9697 12.2197C11.829 12.3603 11.75 12.5511 11.75 12.75C11.75 12.9489 11.829 13.1397 11.9697 13.2803C12.1103 13.421 12.3011 13.5 12.5 13.5Z" fill="currentColor" fill-opacity="1"/>
<path d="M3.5 18.4V15.604C3.72782 15.7287 3.96646 15.8324 4.213 15.914C6.88569 16.8014 9.68385 17.2525 12.5 17.25C15.392 17.25 18.18 16.782 20.787 15.915C21.039 15.831 21.277 15.726 21.5 15.604V18.4C21.5 19.852 20.453 21.128 18.977 21.323C16.857 21.605 14.695 21.75 12.5 21.75C10.334 21.7504 8.17024 21.6078 6.023 21.323C4.547 21.128 3.5 19.852 3.5 18.4Z" fill="currentColor" fill-opacity="1"/>
</svg>
