<svg width="48" height="48" viewBox="0 0 48 48" fill="none" xmlns="http://www.w3.org/2000/svg">
<g clip-path="url(#clip0_15_218)">
<path d="M24 48C37.2548 48 48 37.2548 48 24C48 10.7452 37.2548 0 24 0C10.7452 0 0 10.7452 0 24C0 37.2548 10.7452 48 24 48Z" fill="black"/>
<path d="M34.9516 10.5562H39.429L30.1074 20.2214C26.732 23.7216 21.26 23.7216 17.8924 20.2214L8.56883 10.5562H13.0463L20.1253 17.8982C22.2661 20.112 25.7279 20.112 27.8629 17.8982L34.9516 10.5562ZM12.9906 37.4438H8.51123L17.8924 27.7133C21.2677 24.2131 26.7397 24.2131 30.1151 27.7133L39.4962 37.4438H35.0168L27.8783 30.0365C25.7375 27.8227 22.2757 27.8227 20.1407 30.0365L12.9906 37.4438Z" fill="white"/>
</g>
<defs>
<clipPath id="clip0_15_218">
<rect width="48" height="48" fill="white"/>
</clipPath>
</defs>
</svg>
