<svg width="10" height="18" viewBox="0 0 10 18" fill="none" xmlns="http://www.w3.org/2000/svg">
<path fill-rule="evenodd" clip-rule="evenodd" d="M9.78064 8.48871C9.92109 8.62933 9.99998 8.81996 9.99998 9.01871C9.99998 9.21746 9.92109 9.40808 9.78064 9.54871L2.28064 17.0487C2.13847 17.1812 1.95042 17.2533 1.75612 17.2499C1.56182 17.2465 1.37643 17.1677 1.23902 17.0303C1.10161 16.8929 1.02289 16.7075 1.01947 16.5132C1.01604 16.3189 1.08816 16.1309 1.22064 15.9887L8.19064 9.01871L1.22064 2.04871C1.14695 1.98005 1.08785 1.89725 1.04686 1.80525C1.00587 1.71325 0.983826 1.61393 0.98205 1.51323C0.980273 1.41253 0.998797 1.3125 1.03652 1.21911C1.07424 1.12572 1.13038 1.04089 1.2016 0.969669C1.27282 0.898451 1.35766 0.842306 1.45104 0.804584C1.54443 0.766863 1.64446 0.748339 1.74516 0.750116C1.84587 0.751894 1.94518 0.773933 2.03718 0.814926C2.12918 0.855919 2.21198 0.91502 2.28064 0.988707L9.78064 8.48871Z" fill="white"/>
</svg>
