<svg width="48" height="48" viewBox="0 0 48 48" fill="none" xmlns="http://www.w3.org/2000/svg">
<g clip-path="url(#clip0_1_246)">
<path d="M24 48C37.2096 48 48 37.1904 48 24C48 10.7904 37.1904 0 24 0C10.7904 0 0 10.8096 0 24C0 37.2096 10.8096 48 24 48Z" fill="url(#paint0_linear_1_246)"/>
<path d="M30.9503 29.184L37.7471 25.2672C38.1119 25.056 38.3231 24.672 38.3231 24.2496V16.416C38.3231 15.9936 38.0927 15.6096 37.7471 15.3984L30.9503 11.4816C30.5855 11.2704 30.1439 11.2704 29.7791 11.4816L22.9823 15.3984C22.6175 15.6096 22.4063 15.9936 22.4063 16.416V30.432L17.6447 33.1776L12.8831 30.432V24.9408L17.6447 22.1952L20.7935 24V20.3136L18.2399 18.8352C18.0671 18.7392 17.8559 18.6816 17.6639 18.6816C17.4527 18.6816 17.2607 18.7392 17.0879 18.8352L10.2911 22.752C9.92633 22.9632 9.71513 23.3472 9.71513 23.7696V31.6032C9.71513 32.0256 9.94553 32.4096 10.2911 32.6208L17.0879 36.5376C17.4527 36.7488 17.8943 36.7488 18.2591 36.5376L25.0559 32.6208C25.4207 32.4096 25.6319 32.0256 25.6319 31.6032V17.5872L25.7087 17.5296L30.3935 14.8224L35.1551 17.568V23.0592L30.3935 25.8048L27.2639 24V27.6864L29.8175 29.1648C30.1823 29.376 30.6239 29.376 30.9887 29.1648L30.9503 29.184Z" fill="white"/>
</g>
<defs>
<linearGradient id="paint0_linear_1_246" x1="-8.77889" y1="3.89782" x2="40.7187" y2="34.253" gradientUnits="userSpaceOnUse">
<stop stop-color="#A229C5"/>
<stop offset="1" stop-color="#7B3FE4"/>
</linearGradient>
<clipPath id="clip0_1_246">
<rect width="48" height="48" fill="white"/>
</clipPath>
</defs>
</svg>
